<svg xmlns="http://www.w3.org/2000/svg" viewBox="0 0 1600 900" preserveAspectRatio="xMidYMid slice">
  <defs>
    <linearGradient id="heroBg" x1="0" y1="0" x2="1" y2="1">
      <stop offset="0%" stop-color="#071a33"/>
      <stop offset="55%" stop-color="#0d294e"/>
      <stop offset="100%" stop-color="#102f59"/>
    </linearGradient>
    <radialGradient id="heroGlow" cx="82%" cy="30%" r="60%">
      <stop offset="0%" stop-color="#f1d58f" stop-opacity="0.55"/>
      <stop offset="45%" stop-color="#d9b15f" stop-opacity="0.18"/>
      <stop offset="100%" stop-color="#d9b15f" stop-opacity="0"/>
    </radialGradient>
    <radialGradient id="heroGlow2" cx="15%" cy="85%" r="55%">
      <stop offset="0%" stop-color="#1a3f6e" stop-opacity="0.9"/>
      <stop offset="100%" stop-color="#1a3f6e" stop-opacity="0"/>
    </radialGradient>
    <linearGradient id="beam" x1="0" y1="0" x2="1" y2="1">
      <stop offset="0%" stop-color="#f1d58f" stop-opacity="0"/>
      <stop offset="50%" stop-color="#f1d58f" stop-opacity="0.5"/>
      <stop offset="100%" stop-color="#f1d58f" stop-opacity="0"/>
    </linearGradient>
  </defs>
  <rect width="1600" height="900" fill="url(#heroBg)"/>
  <rect width="1600" height="900" fill="url(#heroGlow2)"/>
  <rect width="1600" height="900" fill="url(#heroGlow)"/>
  <g opacity="0.75">
    <rect x="1120" y="-120" width="26" height="1200" fill="url(#beam)" transform="rotate(28 1133 480)"/>
    <rect x="1240" y="-160" width="14" height="1200" fill="url(#beam)" transform="rotate(28 1247 480)"/>
    <rect x="1340" y="-200" width="40" height="1200" fill="url(#beam)" transform="rotate(28 1360 480)"/>
    <rect x="980" y="-80" width="10" height="1100" fill="url(#beam)" transform="rotate(28 985 480)"/>
  </g>
  <g opacity="0.5">
    <circle cx="1310" cy="260" r="230" fill="none" stroke="#f1d58f" stroke-width="1" opacity="0.35"/>
    <circle cx="1310" cy="260" r="150" fill="none" stroke="#f1d58f" stroke-width="1" opacity="0.28"/>
    <circle cx="1310" cy="260" r="80" fill="none" stroke="#f1d58f" stroke-width="1" opacity="0.22"/>
  </g>
  <g opacity="0.14" stroke="#f1d58f" stroke-width="1">
    <path d="M0 780 C 300 720, 600 840, 900 760 S 1500 700, 1600 760" fill="none"/>
    <path d="M0 830 C 320 790, 640 880, 940 820 S 1500 770, 1600 810" fill="none"/>
  </g>
</svg>
