<svg xmlns="http://www.w3.org/2000/svg" viewBox="0 0 800 1000" preserveAspectRatio="xMidYMid slice">
  <defs>
    <linearGradient id="sofBg" x1="0" y1="0" x2="0" y2="1">
      <stop offset="0%" stop-color="#0b213d"/>
      <stop offset="100%" stop-color="#0d294e"/>
    </linearGradient>
    <radialGradient id="sofGlow" cx="50%" cy="25%" r="55%">
      <stop offset="0%" stop-color="#f1d58f" stop-opacity="0.35"/>
      <stop offset="100%" stop-color="#f1d58f" stop-opacity="0"/>
    </radialGradient>
    <linearGradient id="waveFill" x1="0" y1="0" x2="0" y2="1">
      <stop offset="0%" stop-color="#f1d58f" stop-opacity="0.5"/>
      <stop offset="100%" stop-color="#f1d58f" stop-opacity="0.05"/>
    </linearGradient>
  </defs>
  <rect width="800" height="1000" fill="url(#sofBg)"/>
  <rect width="800" height="1000" fill="url(#sofGlow)"/>
  <g fill="none" stroke="#f1d58f" stroke-width="3">
    <path d="M-20 380 C 100 320, 180 440, 300 380 S 500 320, 620 380 S 800 440, 860 380" opacity="0.75"/>
    <path d="M-20 470 C 100 410, 180 530, 300 470 S 500 410, 620 470 S 800 530, 860 470" opacity="0.55"/>
    <path d="M-20 560 C 100 500, 180 620, 300 560 S 500 500, 620 560 S 800 620, 860 560" opacity="0.35"/>
  </g>
  <path d="M-20 650 C 100 590, 180 710, 300 650 S 500 590, 620 650 S 800 710, 860 650 L 860 1000 L -20 1000 Z" fill="url(#waveFill)"/>
  <circle cx="400" cy="470" r="8" fill="#f7f3eb"/>
</svg>
